<svg id="Layer_1" data-name="Layer 1" xmlns="http://www.w3.org/2000/svg" xmlns:xlink="http://www.w3.org/1999/xlink" viewBox="0 0 1950 320"><defs><style>.cls-1{fill:url(#linear-gradient);}.cls-2{fill:url(#linear-gradient-2);}.cls-3{fill:url(#linear-gradient-3);}.cls-4{fill:url(#linear-gradient-4);}.cls-5{fill:url(#linear-gradient-5);}.cls-6{fill:url(#linear-gradient-6);}.cls-7{fill:url(#linear-gradient-7);}.cls-8{fill:url(#linear-gradient-8);}.cls-9{fill:url(#linear-gradient-9);}</style><linearGradient id="linear-gradient" x1="1268.58" y1="167.18" x2="1268.58" y2="320.26" gradientUnits="userSpaceOnUse"><stop offset="0" stop-color="#fff" stop-opacity="0.9"/><stop offset="1" stop-color="#ffe100" stop-opacity="0"/></linearGradient><linearGradient id="linear-gradient-2" x1="1105.35" y1="183.87" x2="1105.35" y2="320.26" xlink:href="#linear-gradient"/><linearGradient id="linear-gradient-3" x1="652.92" y1="259.31" x2="635.34" y2="192.67" gradientUnits="userSpaceOnUse"><stop offset="0" stop-color="#ffe100" stop-opacity="0"/><stop offset="1" stop-color="#fff" stop-opacity="0.9"/></linearGradient><linearGradient id="linear-gradient-4" x1="875.58" y1="320.26" x2="875.58" y2="183.3" xlink:href="#linear-gradient-3"/><linearGradient id="linear-gradient-5" x1="1287.91" y1="232.28" x2="1287.91" y2="196.41" xlink:href="#linear-gradient-3"/><linearGradient id="linear-gradient-6" x1="260.22" y1="172.13" x2="260.22" y2="41.27" xlink:href="#linear-gradient-3"/><linearGradient id="linear-gradient-7" x1="315.13" y1="172.13" x2="315.13" y2="41.27" xlink:href="#linear-gradient-3"/><linearGradient id="linear-gradient-8" x1="370.12" y1="172.13" x2="370.12" y2="41.27" xlink:href="#linear-gradient-3"/><linearGradient id="linear-gradient-9" x1="1492.49" y1="244.33" x2="1492.49" y2="194.97" xlink:href="#linear-gradient-3"/></defs><polygon class="cls-1" points="1179.8 167.18 1164.24 179.4 1211.36 320.25 1372.91 320.25 1179.8 167.18"/><polygon class="cls-2" points="1071.5 320.25 1119.04 320.25 1139.2 188.42 1119.95 183.87 1071.5 320.25"/><path class="cls-3" d="M602.9,227.57c7.05-.31,13.12-.59,17.21,3.32,3.17,3,4.65,8.17,4.65,16.16,0,0,0,0,0,0h74.58L678,199.54l-34.27-9.07-48.74,37.22C597.62,227.72,600.35,227.69,602.9,227.57Z"/><polygon class="cls-4" points="855.5 183.3 807.37 320.25 943.78 320.13 895.72 183.3 855.5 183.3"/><polygon class="cls-5" points="1312.93 232.28 1300.33 196.41 1275.5 196.41 1262.89 232.28 1312.93 232.28"/><polygon class="cls-6" points="280.75 172.13 268.15 41.27 252.29 41.27 239.69 172.13 280.75 172.13"/><polygon class="cls-7" points="335.66 172.13 323.06 41.27 307.2 41.27 294.6 172.13 335.66 172.13"/><polygon class="cls-8" points="390.65 172.13 378.05 41.27 362.19 41.27 349.58 172.13 390.65 172.13"/><polygon class="cls-9" points="1531.27 244.33 1513.92 194.97 1471.06 194.97 1453.71 244.33 1531.27 244.33"/></svg>